<?xml version="1.0" encoding="UTF-8" standalone="no"?>
<!DOCTYPE svg PUBLIC "-//W3C//DTD SVG 20010904//EN" "http://www.w3.org/TR/2001/REC-SVG-20010904/DTD/svg10.dtd">
<svg version="1.0" xmlns="http://www.w3.org/2000/svg" width="512.000000pt" height="512.000000pt" viewBox="0 0 512.000000 512.000000" preserveAspectRatio="xMidYMid meet">
<metadata>Created by potrace 1.16, written by Peter Selinger 2001-2019</metadata>
<g transform="translate(0.000000,512.000000) scale(0.100000,-0.100000)" fill="#555416" stroke="none">
<path d="M0 2560 l0 -2560 2560 0 2560 0 0 2560 0 2560 -2560 0 -2560 0 0 -2560z m4774 1176 c14 -9 34 -31 43 -49 17 -30 18 -99 23 -1002 5 -903 7 -974 24 -1025 10 -30 29 -70 43 -88 22 -30 23 -36 12 -69 -14 -42 -90 -123 -116 -123 -25 1 -101 36 -140 66 -18 14 -45 46 -60 72 -14 26 -28 49 -29 51 -2 2 -31 -22 -66 -53 -122 -110 -278 -164 -442 -153 -262 16 -430 208 -491 562 -24 138 -22 385 5 515 38 184 99 299 221 414 80 76 163 122 258 142 86 18 135 18 229 -2 65 -13 107 -28 230 -81 9 -4 12 81 12 409 0 318 3 417 13 427 18 19 197 10 231 -13z m-3749 -231 c115 -25 208 -75 289 -158 124 -126 172 -262 163 -457 -6 -121 -33 -209 -100 -325 -55 -94 -132 -173 -392 -398 -255 -221 -365 -329 -423 -417 -55 -82 -55 -94 1 -86 23 4 251 9 506 12 l464 6 -5 -81 c-4 -70 -9 -88 -34 -124 -54 -77 -46 -76 -645 -76 l-526 -1 -46 48 c-63 68 -79 104 -78 172 1 95 42 195 127 310 74 101 141 167 394 390 129 113 261 235 292 269 170 188 193 437 54 577 -89 89 -229 114 -359 64 -80 -30 -184 -128 -229 -216 l-33 -65 -45 6 c-60 8 -147 51 -167 82 -16 24 -15 28 16 91 81 165 229 298 390 352 120 40 268 50 386 25z m1750 -9 c203 -53 374 -214 414 -387 18 -76 13 -203 -10 -271 -36 -108 -127 -220 -237 -293 -23 -15 -42 -29 -42 -31 0 -1 31 -23 69 -48 89 -60 190 -168 229 -245 89 -179 80 -404 -23 -566 -75 -118 -244 -230 -410 -272 -109 -27 -365 -25 -468 5 -171 49 -311 150 -375 270 -89 166 -80 397 20 556 47 74 151 179 224 227 l64 41 -58 38 c-115 75 -206 195 -238 315 -21 76 -18 211 6 287 60 195 238 339 474 384 88 17 277 11 361 -10z"/>
<path d="M4110 2734 c-128 -55 -205 -198 -230 -425 -13 -116 -7 -275 16 -384 32 -151 113 -262 212 -291 113 -33 250 14 359 122 l63 64 0 409 0 410 -66 37 c-126 70 -271 94 -354 58z"/>
<path d="M2445 3264 c-132 -42 -209 -149 -208 -289 1 -152 104 -261 319 -335 90 -31 92 -31 125 -14 60 30 154 136 180 200 32 85 33 209 0 281 -27 62 -83 116 -149 145 -63 28 -198 34 -267 12z"/>
<path d="M2388 2332 c-131 -99 -202 -236 -202 -392 -1 -142 58 -241 178 -300 200 -99 445 -30 533 148 25 51 28 67 28 162 0 88 -4 113 -22 153 -31 67 -124 155 -205 195 -75 36 -202 82 -229 82 -10 0 -46 -21 -81 -48z"/>
</g>
</svg>
